<svg width="67" height="60" fill="none" xmlns="http://www.w3.org/2000/svg">
  <path d="M64.244 29.982L56.52 16.99l3.596-2.018L53.568 4H33.314V0h-13.06L10.146 16.99l-3.597-2.017L0 25.982l2.385 4 7.723 12.99-3.597 2.019 6.55 10.972h20.253V60h13.061l10.146-16.99 3.596 2.018 6.55-10.973-2.423-4.073zm-11.736 2.202l.833 1.394-13.212-7.413 2.233-1.248 8.707 4.881 1.439 2.386zm-7.874-8.551l2.082-1.174 2.082 3.486-4.164-2.312zm.946-3.046L33.314 27.45v-2.533l6.815-3.816 10.94-6.128h4.505l-9.994 5.614zM33.314 40.11l-8.707 4.88H20.14l13.174-7.412v2.532zm0 4.88H29.15l4.164-2.311v2.312zm0-25.137l8.708-4.88h4.505l-13.213 7.412v-2.532zm0-4.844h4.165l-4.165 2.312V15.01zm21.58-4.404l1.286 2.166H33.314v-2.166h21.58zm-7.421-4.403h4.77l1.287 2.165H33.314V6.165h14.159v.037zm-16.43-2.385v24.917l-2.234-1.248V7.596l2.234-3.78zm-9.048 19.816l-2.082-1.174 2.082-3.486v4.66zm2.271-8.44l.114-.184 2.12-3.596v14.789l-2.271-1.248v-9.761h.038zm2.537-12.991h2.612L23.093 12.77l-5.149 8.623-1.93-1.1L26.803 2.202zm-7.647 4l2.423-4h2.612l-3.71 6.202-6.436 10.789-1.969-1.101 7.08-11.89zM9.01 18.899l22.033 12.367-2.271 1.248-11.13-6.239-6.588-3.67-2.12-3.596-.113-.183.189.073zm15.257 16.147l-8.708-4.88-.113-.184-2.12-3.597 13.212 7.376-2.271 1.285zm-2.272 1.284l-2.082 1.175-2.082-3.487 4.164 2.312zM6.55 19.413l6.285 10.569 5.11 8.587-1.93 1.1-9.692-16.256-1.098-1.798 1.325-2.202zM5.035 29.982L3.71 27.78l-1.098-1.798L3.9 23.817l3.71 6.201 6.436 10.79-1.969 1.1-7.041-11.926zm8.177 13.798l20.102-11.266v2.532L15.56 44.99h-4.467l2.12-1.211zm-1.438 5.578l-1.287-2.165h22.827v2.165h-21.54zm7.382 4.404h-4.77l-1.287-2.166h20.215v2.166H19.156zm16.43 2.385v-24.88l2.271 1.247v19.853l-2.271 3.78zm9.048-19.817l2.082 1.175-2.082 3.486v-4.66zm-2.272 8.44l-2.271 3.78V33.798l2.271 1.248v9.725zm-2.498 12.991h-2.612l6.322-10.605 5.11-8.587 1.969 1.1-5.792 9.689-4.997 8.404zm7.609-4l-2.385 4.037h-2.612l3.71-6.202 6.436-10.789 1.968 1.101-7.117 11.853zm10.184-12.697L35.586 28.697l2.233-1.247 4.543 2.532 13.212 7.376 2.272 3.78-.19-.074zm2.46-.477L59.02 38.79 48.684 21.431l1.969-1.1 10.79 18.091-1.326 2.165zm2.613-4.404l-10.108-16.99 1.968-1.101 9.465 15.89-1.326 2.202z" fill="#F9F9F9"/>
</svg>